<svg id="e7sUSqpeYxy1" xmlns="http://www.w3.org/2000/svg" xmlns:xlink="http://www.w3.org/1999/xlink"
    viewBox="0 0 300 300" shape-rendering="geometricPrecision" text-rendering="geometricPrecision">
    <rect width="56.788849" height="32.524522" rx="4" ry="4"
        transform="matrix(1.190912 0 0 1.202432 42.875502 194.598154)" fill="#ccc48b"
        stroke-width="0" stroke-linecap="square" stroke-linejoin="bevel" />
    <rect width="56.788849" height="32.524522" rx="4" ry="4"
        transform="matrix(1.190912 0 0 1.202432 42.875502 194.598154)" fill="#ccc48b"
        stroke-width="0" stroke-linecap="square" stroke-linejoin="bevel" />
    <rect width="56.788849" height="32.524522" rx="4" ry="4"
        transform="matrix(1.190912 0 0 1.202432 42.875502 105.801045)" fill="#ccc48b"
        stroke-width="0" stroke-linecap="square" stroke-linejoin="bevel" />
    <rect width="56.788849" height="32.524522" rx="4" ry="4"
        transform="matrix(1.190912 0 0 1.168674 117.18474 194.630873)" fill="#ccc48b"
        stroke-width="0" stroke-linecap="square" stroke-linejoin="bevel" />
    <rect width="56.788849" height="32.524522" rx="4" ry="4"
        transform="matrix(1.190912 0 0 1.168674 189.846457 194.630873)" fill="#ccc48b"
        stroke-width="0" stroke-linecap="square" stroke-linejoin="bevel" />
    <rect width="56.788849" height="32.524522" rx="4" ry="4"
        transform="matrix(1.190912 0 0 1.168674 117.18474 194.630873)" fill="#ccc48b"
        stroke-width="0" stroke-linecap="square" stroke-linejoin="bevel" />
    <rect width="56.788849" height="32.524522" rx="4" ry="4"
        transform="matrix(1.190912 0 0 1.168674 189.846457 194.630873)" fill="#ccc48b"
        stroke-width="0" stroke-linecap="square" stroke-linejoin="bevel" />
    <rect width="56.788849" height="32.524522" rx="4" ry="4"
        transform="matrix(1.190912 0 0 1.202432 64.042254 150)" fill="#ccc48b" stroke-width="0"
        stroke-linecap="square" stroke-linejoin="bevel" />
    <rect width="56.788849" height="32.524522" rx="4" ry="4"
        transform="matrix(1.190912 0 0 1.168674 117.18474 194.630873)" fill="#ccc48b"
        stroke-width="0" stroke-linecap="square" stroke-linejoin="bevel" />
    <rect width="56.788849" height="32.524522" rx="4" ry="4"
        transform="matrix(1.190912 0 0 1.168674 189.846457 194.630873)" fill="#ccc48b"
        stroke-width="0" stroke-linecap="square" stroke-linejoin="bevel" />
    <rect width="56.788849" height="32.524522" rx="4" ry="4"
        transform="matrix(1.190912 0 0 1.168674 189.846457 194.630873)" fill="#ccc48b"
        stroke-width="0" stroke-linecap="square" stroke-linejoin="bevel" />
    <rect width="56.788849" height="32.524522" rx="4" ry="4"
        transform="matrix(1.139645-.345658 0.339204 1.118365 202.375874 97.428676)" fill="#ccc48b"
        stroke-width="0" stroke-linecap="square" stroke-linejoin="bevel" />
    <rect width="56.788849" height="32.524522" rx="4" ry="4"
        transform="matrix(1.190912 0 0 1.168674 137.867755 150)" fill="#ccc48b" stroke-width="0"
        stroke-linecap="square" stroke-linejoin="bevel" />
    <rect width="56.788849" height="32.524522" rx="4" ry="4"
        transform="matrix(1.190912 0 0 1.168674 210.496948 150)" fill="#ccc48b" stroke-width="0"
        stroke-linecap="square" stroke-linejoin="bevel" />
    <rect width="56.788849" height="32.524522" rx="4" ry="4"
        transform="matrix(1.190912 0 0 1.168674 117.18474 105.801045)" fill="#ccc48b"
        stroke-width="0" stroke-linecap="square" stroke-linejoin="bevel" />
</svg>