<svg id="eEUzSp34Kir1" xmlns="http://www.w3.org/2000/svg" xmlns:xlink="http://www.w3.org/1999/xlink" viewBox="0 0 300 300" shape-rendering="geometricPrecision" text-rendering="geometricPrecision"><rect width="56.788849" height="32.524522" rx="4" ry="4" transform="matrix(1.215299 0 0 1.559303 22.426166 194.555811)" fill="#b8b073" stroke-width="0" stroke-linecap="square" stroke-linejoin="bevel"/><rect width="56.788849" height="32.524522" rx="4" ry="4" transform="matrix(1.215299 0 0 1.559303 22.426166 81.992519)" fill="#ccc8ab" stroke-width="0" stroke-linecap="square" stroke-linejoin="bevel"/><rect width="56.788849" height="32.524522" rx="4" ry="4" transform="matrix(1.215299 0 0 1.515526 98.549764 195.979637)" fill="#a59b58" stroke-width="0" stroke-linecap="square" stroke-linejoin="bevel"/><rect width="56.788849" height="32.524522" rx="4" ry="4" transform="matrix(1.215299 0 0 1.515526 174.050688 195.979637)" fill="#aea460" stroke-width="0" stroke-linecap="square" stroke-linejoin="bevel"/><rect width="56.788849" height="32.524522" rx="4" ry="4" transform="matrix(1.215299 0 0 1.559303 56.933882 138.952518)" fill="#d5cf9c" stroke-width="0" stroke-linecap="square" stroke-linejoin="bevel"/><rect width="56.788849" height="32.524522" rx="4" ry="4" transform="matrix(1.117714-.477146 0.59502 1.393833 183.080505 82.341421)" fill="#d5ca82" stroke-width="0" stroke-linecap="square" stroke-linejoin="bevel"/><rect width="56.788849" height="32.524522" rx="4" ry="4" transform="matrix(1.215299 0 0 1.515526 133.05748 140.376344)" fill="#b5af7d" stroke-width="0" stroke-linecap="square" stroke-linejoin="bevel"/><rect width="56.788849" height="32.524522" rx="4" ry="4" transform="matrix(1.215299 0 0 1.515526 208.558404 140.376344)" fill="#b3a85d" stroke-width="0" stroke-linecap="square" stroke-linejoin="bevel"/><rect width="56.788849" height="32.524522" rx="4" ry="4" transform="matrix(1.215299 0 0 1.515526 98.549765 83.704432)" fill="#d8cf8f" stroke-width="0" stroke-linecap="square" stroke-linejoin="bevel"/></svg>
